[img]http://www.khaolaknews.com/wp-content/uploads/2011/03/f1.jpg[/img]

Formula One 2011 Season

Race 2: Malaysian GP, Kuala Lumpur. Sepang Circuit

Record Source: BBC One
Original Format: Windows Media Centre .WTV File
Date: Saturday 09th April 2011
Time: 08:00 to 10:15

Malaysian Grand Prix Qualifying

Jake Humphrey, Martin Brundle, David Coulthard & Eddie Jordan present live coverage of Qualifying for the 2nd Race meeting of the 2011 Formula One season,
the Malaysian Grand Prix, from Sepang in Kulala Lumpur.

*NB*  Please Note: the first 20 minutes of the broadcast is Out Of Sync with the audio which was a fault from the
actual BBC Feed itself,as you will hear Jake Humphreys mention several times their technicians are trying to fix the 
problem. This was evident on BBc One, BBC One HD, Red Button Feed & Online AGAIN! BBC have had technical problems
all weekend with picture breakup and audio problems! Please bear with the lipsync problems as they fix the error 
after 20 minutes or so adn the reaminder of the program is unaffected.

Recoded Method:

General
Complete name                    : F1 2011 - Malaysia Qualifying.mp4
Format                           : MPEG-4
Format profile                   : Base Media
Codec ID                         : isom
File size                        : 1.81 GiB
Duration                         : 2h 14mn
Overall bit rate                 : 1 933 Kbps
Encoded date                     : UTC 2011-04-09 20:45:29
Tagged date                      : UTC 2011-04-09 20:45:29
Writing application              : Lavf51.12.1

Video
ID                               : 1
Format                           : MPEG-4 Visual
Format profile                   : Simple@L1
Format settings, BVOP            : No
Format settings, QPel            : No
Format settings, GMC             : No warppoints
Format settings, Matrix          : Default (H.263)
Codec ID                         : 20
Duration                         : 2h 14mn
Bit rate mode                    : Variable
Bit rate                         : 1 800 Kbps
Width                            : 1 024 pixels
Height                           : 576 pixels
Display aspect ratio             : 16:9
Frame rate mode                  : Constant
Frame rate                       : 25.000 fps
Color space                      : YUV
Chroma subsampling               : 4:2:0
Bit depth                        : 8 bits
Scan type                        : Progressive
Compression mode                 : Lossy
Bits/(Pixel*Frame)               : 0.122
Stream size                      : 1.69 GiB (93%)
Writing library                  : Lavc51.40.4
Encoded date                     : UTC 2011-04-09 20:45:29
Tagged date                      : UTC 2011-04-09 20:45:29

Audio
ID                               : 2
Format                           : AAC
Format/Info                      : Advanced Audio Codec
Format profile                   : LC
Codec ID                         : 40
Duration                         : 2h 14mn
Bit rate mode                    : Variable
Bit rate                         : 128 Kbps
Channel(s)                       : 2 channels
Channel positions                : Front: L R
Sampling rate                    : 48.0 KHz
Compression mode                 : Lossy
Stream size                      : 123 MiB (7%)
Encoded date                     : UTC 2011-04-09 20:45:29
Tagged date                      : UTC 2011-04-09 20:45:29

Enjoy

The BlackKnight
The Race Will Follow Tomorrow